<?xml version="1.0" encoding="utf-8"?>
<!-- Generator: Adobe Illustrator 25.1.0, SVG Export Plug-In . SVG Version: 6.00 Build 0)  -->
<svg version="1.1" id="Layer_1" xmlns="http://www.w3.org/2000/svg" xmlns:xlink="http://www.w3.org/1999/xlink" x="0px" y="0px"
	 viewBox="0 0 600 600" style="enable-background:new 0 0 600 600;" xml:space="preserve">
<style type="text/css">
	.st0{fill:#FFF9F2;}
	.st1{fill:#0E3B50;}
</style>
<path class="st0" d="M162.95,402.17c-2.39-2.88-3.96-4.76-5.51-6.64c-32.63-39.7-54.61-84.6-65.63-134.82
	c-1.75-7.98,1.11-12.44,9.05-14.18c15.29-3.34,30.59-6.64,45.88-9.97c1.45-0.32,2.89-0.73,4.93-1.25c0-1.96,0-3.9,0-5.84
	c0-29.67,0-59.33,0-89c0-21.41,9.84-31.45,31.28-31.93c0.81-0.02,1.63-0.11,3.19-0.23c0-7.17,0-14.26,0-21.36
	c0-3.5-0.07-7,0.02-10.5c0.17-6.73,4.32-11.11,10.33-11c5.88,0.1,9.79,4.26,9.86,10.88c0.11,10.47,0.03,20.95,0.03,31.82
	c4.79,0,9.19,0,14.44,0c0-1.79,0-3.71,0-5.62c0-8.83-0.08-17.67,0.04-26.5c0.09-6.48,4.19-10.63,10.12-10.58
	c5.8,0.06,9.86,4.38,9.97,10.81c0.09,5.33,0.02,10.67,0.02,16c0,5.15,0,10.31,0,15.87c4.65,0,9.04,0,14.02,0
	c0.08-1.63,0.24-3.38,0.24-5.14c0.02-17-0.01-34,0.02-51c0.02-8.88,3.58-12.47,12.4-12.48c21.5-0.02,43-0.02,64.5,0
	c9.09,0.01,12.57,3.55,12.58,12.8c0.02,16.67,0.01,33.33,0.01,50c0,1.82,0,3.64,0,5.84c4.71,0,9.12,0,14.28,0c0-7.2,0-14.46,0-21.73
	c0-3.5-0.08-7,0.03-10.5c0.19-6.39,4.36-10.6,10.27-10.49c5.68,0.1,9.74,4.24,9.8,10.4c0.11,10.64,0.03,21.28,0.03,32.31
	c4.78,0,9.19,0,14.43,0c0-2.33,0-4.74,0-7.15c0.01-8.33-0.12-16.67,0.06-25c0.14-6.52,4.29-10.63,10.18-10.55
	c5.81,0.08,9.86,4.35,10.01,10.82c0.12,5.33,0.03,10.67,0.03,16c0,5.16,0,10.31,0,16.27c1.85,0,3.43-0.01,5.01,0
	c18.4,0.16,29.41,11.26,29.43,29.75c0.03,30.17,0.01,60.33,0.01,90.5c0,1.99,0,3.98,0,6.61c9.3,2.05,18.5,4.1,27.7,6.11
	c7.81,1.71,15.63,3.34,23.43,5.08c7.58,1.69,10.45,6.26,8.77,13.94c-10.97,50.24-32.95,95.13-65.55,134.85
	c-1.37,1.67-2.77,3.33-4.14,5.01c-0.19,0.24-0.24,0.6-0.69,1.77c2.21,0,4.1,0,5.98,0c34.33,0,68.66,0,103,0
	c1.5,0,3.01-0.07,4.5,0.06c5.36,0.46,9.35,4.67,9.42,9.85c0.07,4.9-3.65,9.35-8.68,10.1c-1.96,0.29-3.99,0.16-5.99,0.16
	c-164,0.01-327.99,0.01-491.99,0.01c-1.33,0-2.67,0.03-4-0.01c-6.32-0.22-10.8-4.41-10.82-10.1c-0.02-5.73,4.37-9.98,10.76-10.04
	c11.83-0.11,23.67-0.04,35.5-0.04c23.67,0,47.33,0,71,0C158.28,402.17,160.04,402.17,162.95,402.17z M289.64,226.24
	c-58.85,12.79-117.32,25.49-176.54,38.36c3.12,9.68,5.74,18.77,8.95,27.65c14.52,40.1,34.94,76.6,66.08,106.35
	c2.02,1.93,5.42,3.38,8.2,3.4c29.32,0.24,58.64,0.15,87.96,0.14c1.78,0,3.56-0.15,5.31-0.23c0-44.41,0-88.31,0-132.51
	c-1.65,0.26-2.95,0.42-4.23,0.67c-22.86,4.53-45.71,9.09-68.57,13.59c-7.08,1.39-12.2-1.56-13.46-7.58
	c-1.22-5.84,2.56-10.8,9.55-12.22c14.03-2.85,28.08-5.57,42.12-8.38c11.55-2.31,23.1-4.66,34.63-6.99
	C289.64,240.96,289.64,233.87,289.64,226.24z M486.54,264.52C427.53,251.7,369.08,239,310.29,226.23c0,7.76,0,14.88,0,22.16
	c1.76,0.41,3.37,0.82,4.99,1.14c23.83,4.75,47.66,9.46,71.48,14.25c7.09,1.42,10.68,6.17,9.49,12.23c-1.19,6.07-6.25,9-13.38,7.6
	c-14.53-2.84-29.05-5.78-43.58-8.66c-9.57-1.9-19.14-3.77-28.95-5.71c0,44.51,0,88.41,0,132.91c2.05,0,3.84,0,5.63,0
	c29.15,0,58.3-0.07,87.45,0.08c3.67,0.02,6.21-1.19,8.77-3.66c19.7-19.08,35.29-41.14,47.92-65.39
	C471.38,311.57,480.14,288.99,486.54,264.52z M171.9,230.92c2.28-0.43,3.9-0.7,5.51-1.04c39.37-8.52,78.73-17.09,118.12-25.5
	c2.82-0.6,6-0.63,8.82-0.03c33.7,7.19,67.36,14.55,101.03,21.85c7.4,1.6,14.81,3.13,22.27,4.7c0.23-1.14,0.41-1.62,0.41-2.1
	c0.02-30.66,0.06-61.31,0-91.97c-0.01-5.66-2.78-8.08-9.04-8.08c-79.3-0.02-158.61-0.02-237.91,0c-6.86,0-9.2,2.45-9.21,9.43
	c-0.02,18.99-0.01,37.99-0.01,56.98C171.9,206.79,171.9,218.44,171.9,230.92z M324.12,59.95c-16.16,0-32.02,0-48.19,0
	c0,4.69,0,9.09,0,13.8c16.14,0,32.03,0,48.19,0C324.12,69.06,324.12,64.65,324.12,59.95z M324.11,94.57c-16.17,0-32.04,0-48.18,0
	c0,4.66,0,9.05,0,13.69c16.17,0,32.03,0,48.18,0C324.11,103.6,324.11,99.21,324.11,94.57z"/>
<path class="st0" d="M295.68,456.76c-57.66,0-115.33,0-172.99,0c-1.67,0-3.34,0.07-5-0.08c-5.19-0.46-9-4.39-9.27-9.45
	c-0.26-4.97,3.25-9.47,8.28-10.39c1.62-0.3,3.32-0.22,4.98-0.22c115.83-0.01,231.65-0.01,347.48,0c1.67,0,3.35-0.09,4.99,0.13
	c5.25,0.73,9.01,5.31,8.75,10.48c-0.26,5.07-4.06,9-9.24,9.45c-1.66,0.14-3.33,0.08-5,0.08
	C411.01,456.76,353.35,456.76,295.68,456.76z"/>
<path class="st0" d="M295.51,491.41c-48.98,0-97.97,0-146.95,0c-1.5,0-3.01,0.09-4.5-0.04c-5.62-0.48-9.79-4.84-9.76-10.13
	c0.03-5.37,4.14-9.55,9.84-9.97c1.16-0.09,2.33-0.05,3.5-0.05c98.47,0,196.93,0,295.4,0.01c9.22,0,13.81,3.27,13.94,9.85
	c0.13,6.77-4.68,10.33-14.02,10.33C393.81,491.41,344.66,491.41,295.51,491.41z"/>
<path class="st0" d="M295.53,525.86c-37.66,0-75.33,0-112.99-0.01c-1.66,0-3.35,0.04-4.99-0.18c-4.76-0.64-8.17-4.31-8.55-9.02
	c-0.38-4.72,2.36-9.01,6.9-10.36c1.72-0.51,3.61-0.61,5.42-0.61c76.33-0.03,152.66-0.03,228.99,0.02c2.12,0,4.43,0.23,6.31,1.09
	c4.44,2.03,6.32,5.81,5.57,10.64c-0.72,4.63-3.55,7.47-8.18,8.21c-2.12,0.34-4.32,0.23-6.48,0.23
	C370.19,525.87,332.86,525.87,295.53,525.86z"/>
<path class="st0" d="M295.62,540.31c23.98,0,47.96-0.02,71.94,0.01c6.5,0.01,10.56,2.95,11.46,8.11c1.12,6.41-3.32,11.8-10.12,11.98
	c-6.49,0.17-12.99,0.04-19.48,0.04c-41.63,0-83.26-0.02-124.89,0.03c-4.21,0.01-8.59-0.39-10.34-4.45c-1.3-3.01-1.6-7.11-0.71-10.26
	c1.12-3.95,4.99-5.48,9.2-5.47c11.99,0.03,23.98,0,35.97,0C270.98,540.31,283.3,540.31,295.62,540.31z"/>
<path class="st0" d="M367.74,166.01c0-4.32-0.15-8.65,0.04-12.96c0.26-5.91,3.86-9.67,9.78-9.82c8.8-0.22,17.62-0.23,26.42,0.01
	c5.8,0.16,9.65,4.07,9.8,9.87c0.22,8.64,0.22,17.29-0.01,25.93c-0.16,6.22-4.27,10.09-10.6,10.2c-8.31,0.15-16.62,0.16-24.93-0.01
	c-6.6-0.13-10.32-4.05-10.5-10.75c-0.12-4.15-0.02-8.31-0.02-12.47C367.72,166.01,367.73,166.01,367.74,166.01z M393.39,163.36
	c-2.07,0.1-3.61,0.17-5.48,0.26c0.09,1.9,0.16,3.44,0.23,5.01c1.97,0,3.51,0,5.24,0C393.39,166.88,393.39,165.47,393.39,163.36z"/>
<path class="st0" d="M232.27,166.24c0,4.16,0.1,8.31-0.02,12.47c-0.19,6.38-3.9,10.34-10.22,10.5c-8.47,0.21-16.96,0.19-25.43,0.01
	c-6.25-0.13-10.26-4.15-10.39-10.42c-0.18-8.47-0.17-16.96,0.01-25.43c0.13-6.07,3.96-9.99,10.04-10.15
	c8.64-0.22,17.29-0.22,25.93-0.01c6.21,0.15,9.74,3.92,10.08,10.07c0.02,0.33,0.02,0.66,0.02,1
	C232.27,158.26,232.27,162.25,232.27,166.24z M211.92,163.33c-2.07,0.12-3.63,0.21-5.54,0.33c0.11,1.94,0.19,3.47,0.3,5.33
	c2.04-0.1,3.59-0.18,5.24-0.27C211.92,166.85,211.92,165.42,211.92,163.33z"/>
<path class="st0" d="M246.75,166.15c0-4.16-0.09-8.31,0.03-12.47c0.18-6.49,3.76-10.36,10.16-10.5c8.64-0.19,17.29-0.19,25.93,0.03
	c6.04,0.16,9.84,4.13,9.97,10.24c0.17,8.47,0.17,16.96-0.01,25.43c-0.13,6.04-3.99,10.12-9.98,10.29
	c-8.64,0.25-17.29,0.25-25.93,0.02c-6.3-0.16-9.9-4.15-10.14-10.58c-0.08-2.16-0.03-4.32-0.03-6.48
	C246.74,170.14,246.75,168.15,246.75,166.15z M272.63,168.7c-0.09-1.98-0.16-3.39-0.23-4.95c-1.95,0-3.61,0-5.26,0
	c0,1.82,0,3.25,0,4.95C268.9,168.7,270.47,168.7,272.63,168.7z"/>
<path class="st0" d="M353.23,166.48c0,4.16,0.11,8.31-0.03,12.47c-0.2,6.09-3.89,10.08-9.94,10.25c-8.64,0.24-17.29,0.23-25.93,0
	c-6.23-0.17-10.06-4.29-10.16-10.63c-0.14-8.31-0.14-16.62,0.01-24.93c0.12-6.39,3.9-10.28,10.28-10.43
	c8.47-0.2,16.96-0.19,25.43-0.01c6.52,0.14,10.12,3.87,10.32,10.33C353.34,157.84,353.23,162.16,353.23,166.48z M327.59,168.6
	c1.91,0,3.6,0,5.59,0c-0.16-1.97-0.28-3.52-0.42-5.32c-2.03,0.15-3.61,0.27-5.17,0.39C327.59,165.56,327.59,167.01,327.59,168.6z"/>
<path class="st1" d="M393.39,163.36c0,2.11,0,3.52,0,5.27c-1.74,0-3.28,0-5.24,0c-0.07-1.58-0.14-3.11-0.23-5.01
	C389.78,163.53,391.32,163.46,393.39,163.36z"/>
<path class="st1" d="M211.92,163.33c0,2.09,0,3.52,0,5.39c-1.65,0.08-3.2,0.16-5.24,0.27c-0.1-1.86-0.19-3.39-0.3-5.33
	C208.29,163.54,209.85,163.45,211.92,163.33z"/>
<path class="st1" d="M272.63,168.7c-2.16,0-3.73,0-5.5,0c0-1.7,0-3.13,0-4.95c1.66,0,3.32,0,5.26,0
	C272.47,165.31,272.54,166.72,272.63,168.7z"/>
<path class="st1" d="M327.59,168.6c0-1.59,0-3.04,0-4.92c1.56-0.12,3.13-0.24,5.17-0.39c0.14,1.8,0.27,3.35,0.42,5.32
	C331.18,168.6,329.5,168.6,327.59,168.6z"/>
</svg>
